# xmcd
# Track frame offsets:
# 150
# 18339
# 37586
# 60226
# 83631
# 103308
# 125735
# 153201
# 174885
# 199162
#
# Disc length: 2898 seconds
# Revision: 0
# Processed by: cddbd v1.5PL3 Copyright (c) Steve Scherf et al.
# Submitted via: VisiTrax 2.9.9.202 - For more info visit www.synapsa.com
#
DISCID=6e0b500a
DTITLE=Superior Band - No House No Home Without My Man
DYEAR=2003
DGENRE=Blues
TTITLE0=Ready To Love You (Baby Come Back)
TTITLE1=Whole Lotta Woman
TTITLE2=Just Ain't No House No Home (Without My Man)
TTITLE3=I've Never Been Touched (Like I've Been Touched By You)
TTITLE4=I Wanted To Be Your Full-Time Lover
TTITLE5=Movin' On
TTITLE6=Let's Go Slow Dancin'
TTITLE7=Po' Thang
TTITLE8=No Mo' Blues
TTITLE9=Ready To Love You (Remix)
EXTD=
EXTT0=
EXTT1=
EXTT2=
EXTT3=
EXTT4=
EXTT5=
EXTT6=
EXTT7=
EXTT8=
EXTT9=
PLAYORDER=
